<?xml version="1.0" standalone="no"?>
<!DOCTYPE svg PUBLIC "-//W3C//DTD SVG 20010904//EN"
 "http://www.w3.org/TR/2001/REC-SVG-20010904/DTD/svg10.dtd">
<svg version="1.0" xmlns="http://www.w3.org/2000/svg"
 width="200.000000pt" height="270.000000pt" viewBox="0 0 200.000000 270.000000"
 preserveAspectRatio="xMidYMid meet">

<g transform="translate(0.000000,270.000000) scale(0.100000,-0.100000)"
fill="#000000" stroke="none">
<path d="M59 2601 l-29 -29 0 -331 0 -331 29 -32 29 -33 155 0 c151 0 156 1
181 24 36 34 46 78 46 214 l0 117 195 0 196 0 49 -50 50 -49 0 -751 0 -751
-50 -49 -49 -50 -196 0 -195 0 0 118 c0 135 -10 179 -46 213 -25 23 -30 24
-181 24 l-155 0 -29 -33 -29 -32 0 -331 0 -331 29 -29 29 -29 156 0 c146 0
156 1 181 23 35 30 45 80 44 212 l-2 110 204 3 204 2 18 -29 c18 -31 71 -61
107 -61 36 0 89 30 107 61 l18 29 204 -2 204 -3 -2 -110 c-1 -132 9 -182 44
-212 25 -22 35 -23 181 -23 l156 0 29 29 29 29 0 331 0 331 -29 32 -29 33
-155 0 c-151 0 -156 -1 -181 -24 -36 -34 -46 -78 -46 -213 l0 -118 -195 0
-196 0 -49 50 -50 49 0 751 0 751 50 49 49 50 196 0 195 0 0 -117 c0 -136 10
-180 46 -214 25 -23 30 -24 181 -24 l155 0 29 33 29 32 0 331 0 331 -29 29
-29 29 -156 0 c-146 0 -156 -1 -181 -22 -35 -31 -45 -81 -44 -213 l2 -110
-204 -3 -204 -2 -18 29 c-18 31 -71 61 -107 61 -36 0 -89 -30 -107 -61 l-18
-29 -204 2 -204 3 2 110 c1 132 -9 182 -44 213 -25 21 -35 22 -181 22 l-156 0
-29 -29z m319 -109 l3 -53 -60 31 c-33 16 -67 30 -76 30 -9 0 -42 -14 -75 -30
l-60 -30 0 48 c0 27 3 52 7 56 4 3 63 5 132 4 l126 -3 3 -53z m1510 0 l3 -53
-60 31 c-33 16 -67 30 -76 30 -9 0 -42 -14 -75 -30 l-60 -30 0 48 c0 27 3 52
7 56 4 3 63 5 132 4 l126 -3 3 -53z m-1573 -114 c63 -31 65 -34 65 -70 0 -21
-5 -38 -10 -38 -6 0 -33 11 -60 25 -27 14 -56 25 -65 25 -9 0 -38 -11 -65 -25
-27 -14 -54 -25 -60 -25 -5 0 -10 17 -10 38 0 36 2 39 63 69 34 18 65 32 69
32 4 1 37 -13 73 -31z m1510 0 c63 -31 65 -34 65 -70 0 -21 -5 -38 -10 -38 -6
0 -33 11 -60 25 -27 14 -56 25 -65 25 -9 0 -38 -11 -65 -25 -27 -14 -54 -25
-60 -25 -5 0 -10 17 -10 38 0 36 2 39 63 69 34 18 65 32 69 32 4 1 37 -13 73
-31z m-783 -123 c9 -21 8 -28 -7 -45 -10 -11 -26 -20 -35 -20 -9 0 -25 9 -35
20 -27 30 -7 70 35 70 23 0 33 -6 42 -25z m-722 -55 c58 -29 60 -31 60 -70 0
-22 -2 -40 -4 -40 -2 0 -32 13 -66 29 -67 32 -70 32 -149 -9 -22 -11 -43 -20
-46 -20 -3 0 -5 18 -5 40 0 38 2 41 58 69 31 17 65 30 75 31 10 0 44 -14 77
-30z m1510 0 c58 -29 60 -31 60 -70 0 -22 -2 -40 -4 -40 -2 0 -32 13 -66 29
-67 32 -70 32 -149 -9 -22 -11 -43 -20 -46 -20 -3 0 -5 18 -5 40 0 38 2 41 58
69 31 17 65 30 75 31 10 0 44 -14 77 -30z m-1450 -233 c0 -41 -18 -47 -128
-47 -115 0 -142 9 -142 45 0 20 12 31 67 59 l68 34 67 -34 c54 -27 68 -39 68
-57z m1510 -2 c0 -36 -27 -45 -142 -45 -110 0 -128 6 -128 47 0 18 14 30 67
57 l68 34 67 -34 c56 -28 68 -39 68 -59z m-1529 -1195 c14 -8 19 -21 19 -55 0
-25 -2 -45 -5 -45 -3 0 -24 9 -46 20 -77 40 -81 40 -148 9 -34 -16 -64 -29
-67 -29 -2 0 -4 20 -4 45 0 31 5 47 18 54 22 14 208 14 233 1z m1510 0 c14 -8
19 -21 19 -55 0 -25 -2 -45 -4 -45 -2 0 -32 13 -66 29 -67 32 -70 32 -149 -9
-22 -11 -43 -20 -46 -20 -3 0 -5 20 -5 45 0 31 5 47 18 54 22 14 208 14 233 1z
m-1491 -240 c0 -22 -2 -40 -5 -40 -2 0 -33 14 -68 31 l-63 31 -62 -31 c-34
-17 -64 -31 -67 -31 -3 0 -5 18 -5 40 0 39 1 40 67 74 l68 34 67 -34 c67 -34
68 -35 68 -74z m1510 0 c0 -22 -2 -40 -5 -40 -2 0 -33 14 -68 31 l-63 31 -62
-31 c-34 -17 -64 -31 -67 -31 -3 0 -5 18 -5 40 0 39 1 40 67 74 l68 34 67 -34
c67 -34 68 -35 68 -74z m-855 -40 c27 -30 7 -70 -35 -70 -42 0 -62 40 -35 70
10 11 26 20 35 20 9 0 25 -9 35 -20z m-717 -65 c62 -29 62 -29 62 -72 0 -24
-2 -43 -3 -43 -2 0 -28 13 -58 30 -30 16 -62 30 -72 30 -9 0 -43 -13 -74 -30
-31 -16 -58 -30 -60 -30 -2 0 -3 19 -1 42 3 42 5 44 68 75 36 18 67 31 70 30
3 -1 33 -15 68 -32z m1502 2 c63 -31 65 -33 68 -75 2 -23 1 -42 -1 -42 -2 0
-29 14 -60 30 -31 17 -64 30 -72 30 -8 0 -41 -13 -72 -30 -31 -17 -58 -30 -60
-30 -2 0 -3 19 -1 42 3 41 5 44 63 74 33 18 62 33 65 33 3 0 34 -14 70 -32z
m-1505 -179 c61 -31 66 -35 63 -63 l-3 -30 -130 0 -130 0 -3 30 c-3 28 2 33
60 62 35 18 66 32 70 32 4 1 37 -14 73 -31z m1510 -1 c53 -28 60 -36 60 -62
l0 -30 -130 0 -130 0 -3 30 c-3 28 2 33 60 62 35 18 68 32 73 32 6 0 37 -14
70 -32z"/>
</g>
</svg>
