<?xml version="1.0" standalone="no"?>
<!DOCTYPE svg PUBLIC "-//W3C//DTD SVG 20010904//EN"
 "http://www.w3.org/TR/2001/REC-SVG-20010904/DTD/svg10.dtd">
<svg version="1.0" xmlns="http://www.w3.org/2000/svg"
 width="200.000000pt" height="270.000000pt" viewBox="0 0 200.000000 270.000000"
 preserveAspectRatio="xMidYMid meet">

<g transform="translate(0.000000,270.000000) scale(0.100000,-0.100000)"
fill="#000000" stroke="none">
<path d="M105 2626 c-76 -29 -75 -21 -75 -386 0 -356 0 -354 60 -385 21 -11
63 -15 158 -15 118 0 132 2 163 23 47 31 58 72 58 215 l1 122 195 0 196 0 50
-50 49 -49 -2 -798 -3 -798 -242 -3 -243 -2 0 125 c0 212 -21 235 -223 235
-94 0 -136 -4 -157 -15 -60 -31 -60 -28 -60 -386 l0 -327 30 -31 c37 -37 82
-45 222 -39 108 4 133 12 166 60 13 18 18 53 20 160 l4 138 528 0 528 0 4
-137 c4 -160 13 -182 83 -209 61 -23 267 -17 306 9 47 31 49 47 49 385 0 348
0 346 -60 377 -21 11 -63 15 -158 15 -118 0 -132 -2 -163 -23 -47 -31 -58 -72
-58 -215 l-1 -122 -242 2 -243 3 -3 798 -2 798 49 49 50 50 196 0 195 0 1
-122 c0 -143 11 -184 58 -215 31 -21 45 -23 163 -23 95 0 137 4 158 15 60 31
60 28 60 386 l0 327 -30 31 c-37 37 -82 45 -222 39 -108 -4 -133 -12 -166 -60
-13 -18 -18 -53 -20 -160 l-4 -138 -202 0 -202 0 -17 29 c-18 31 -71 61 -107
61 -36 0 -89 -30 -107 -61 l-17 -29 -202 0 -202 0 -4 138 c-3 145 -9 165 -59
200 -33 23 -248 28 -304 8z m273 -134 l3 -53 -60 31 c-33 16 -67 30 -76 30 -9
0 -38 -11 -65 -25 -27 -14 -54 -25 -60 -25 -11 0 -14 83 -3 94 4 3 63 5 132 4
l126 -3 3 -53z m1510 6 c2 -30 -1 -48 -8 -48 -6 0 -33 11 -60 25 -27 14 -56
25 -65 25 -9 0 -42 -14 -75 -30 l-60 -30 0 48 c0 27 3 52 7 56 4 3 63 5 132 4
l126 -3 3 -47z m-1573 -120 c63 -31 65 -34 65 -70 0 -21 -5 -38 -10 -38 -6 0
-33 11 -60 25 -27 14 -56 25 -65 25 -9 0 -38 -11 -65 -25 -27 -14 -54 -25 -60
-25 -5 0 -10 17 -10 38 0 36 2 39 63 69 34 18 65 32 69 32 4 1 37 -13 73 -31z
m1510 0 c63 -31 65 -34 65 -70 0 -21 -5 -38 -10 -38 -6 0 -33 11 -60 25 -27
14 -56 25 -65 25 -9 0 -38 -11 -65 -25 -27 -14 -54 -25 -60 -25 -5 0 -10 17
-10 38 0 36 2 39 63 69 34 18 65 32 69 32 4 1 37 -13 73 -31z m-785 -119 c14
-26 -11 -69 -40 -69 -11 0 -27 11 -35 24 -23 34 -5 66 35 66 19 0 33 -7 40
-21z m-720 -59 c58 -29 60 -31 60 -70 0 -22 -2 -40 -4 -40 -2 0 -32 13 -66 29
-67 32 -70 32 -149 -9 -22 -11 -43 -20 -46 -20 -3 0 -5 18 -5 40 0 38 2 41 58
69 31 17 65 30 75 31 10 0 44 -14 77 -30z m1510 0 c58 -29 60 -31 60 -70 0
-22 -2 -40 -4 -40 -2 0 -32 13 -66 29 -67 32 -70 32 -149 -9 -22 -11 -43 -20
-46 -20 -3 0 -5 18 -5 40 0 38 2 41 58 69 31 17 65 30 75 31 10 0 44 -14 77
-30z m-1452 -238 l-3 -27 -130 0 -130 0 -3 27 c-3 24 3 30 65 61 l68 35 68
-35 c62 -30 68 -37 65 -61z m1510 0 l-3 -27 -130 0 -130 0 -3 27 c-3 24 3 30
65 61 l68 35 68 -35 c62 -30 68 -37 65 -61z m-1513 -1502 l0 -305 -130 0 -130
0 -3 295 c-1 162 0 301 3 308 3 10 35 12 132 10 l128 -3 0 -305z m1510 0 l0
-305 -130 0 -130 0 -3 295 c-1 162 0 301 3 308 3 10 35 12 132 10 l128 -3 0
-305z"/>
</g>
</svg>
