<?xml version="1.0" standalone="no"?>
<!DOCTYPE svg PUBLIC "-//W3C//DTD SVG 20010904//EN"
 "http://www.w3.org/TR/2001/REC-SVG-20010904/DTD/svg10.dtd">
<svg version="1.0" xmlns="http://www.w3.org/2000/svg"
 width="200.000000pt" height="270.000000pt" viewBox="0 0 200.000000 270.000000"
 preserveAspectRatio="xMidYMid meet">

<g transform="translate(0.000000,270.000000) scale(0.100000,-0.100000)"
fill="#000000" stroke="none">
<path d="M103 2629 c-17 -5 -41 -21 -52 -35 -20 -26 -21 -38 -21 -355 l0 -329
29 -32 29 -33 155 0 c141 0 157 2 177 20 40 36 50 76 50 210 l0 125 243 -2
242 -3 3 -797 2 -797 -49 -50 -50 -51 -195 0 -196 0 0 125 c0 134 -10 174 -50
210 -20 18 -36 20 -177 20 l-155 0 -29 -33 -29 -32 0 -331 0 -331 28 -28 c36
-35 85 -44 225 -38 167 6 187 30 187 233 l0 125 203 0 202 -1 20 -32 c13 -21
35 -37 63 -47 37 -13 47 -13 84 0 28 10 50 26 63 47 l20 32 203 1 202 0 0
-125 c0 -203 20 -227 187 -233 140 -6 189 3 225 38 l28 28 0 331 0 331 -29 32
-29 33 -155 0 c-141 0 -157 -2 -177 -20 -40 -36 -50 -76 -50 -210 l0 -125
-196 0 -195 0 -50 51 -49 50 2 797 3 797 243 3 242 2 0 -125 c0 -134 10 -174
50 -210 20 -18 36 -20 177 -20 l155 0 29 33 29 32 0 331 0 331 -28 28 c-36 35
-85 44 -225 38 -167 -6 -187 -30 -187 -233 l0 -125 -530 0 -530 0 0 125 c0
210 -17 229 -210 232 -69 1 -139 -2 -157 -8z m272 -389 l0 -305 -130 0 -130 0
-3 295 c-1 162 0 301 3 308 3 10 35 12 132 10 l128 -3 0 -305z m1510 0 l0
-305 -130 0 -130 0 -3 295 c-1 162 0 301 3 308 3 10 35 12 132 10 l128 -3 0
-305z m-1507 -1522 c2 -27 0 -48 -3 -48 -3 0 -33 14 -67 31 l-62 31 -63 -31
c-35 -17 -66 -31 -68 -31 -8 0 -6 86 2 94 4 3 63 5 132 4 l126 -3 3 -47z
m1510 0 c2 -27 0 -48 -3 -48 -3 0 -33 14 -67 31 l-62 31 -63 -31 c-35 -17 -66
-31 -68 -31 -8 0 -6 86 2 94 4 3 63 5 132 4 l126 -3 3 -47z m-1568 -118 c58
-29 60 -31 60 -70 0 -22 -2 -40 -5 -40 -3 0 -33 14 -67 31 l-62 31 -63 -31
c-35 -17 -66 -31 -68 -31 -3 0 -5 18 -5 40 0 38 2 41 58 69 31 17 65 30 75 31
10 0 44 -14 77 -30z m1510 0 c58 -29 60 -31 60 -70 0 -22 -2 -40 -5 -40 -3 0
-33 14 -67 31 l-62 31 -63 -31 c-35 -17 -66 -31 -68 -31 -3 0 -5 18 -5 40 0
38 2 41 58 69 31 17 65 30 75 31 10 0 44 -14 77 -30z m-816 -96 c49 -19 37
-84 -14 -84 -40 0 -58 32 -35 66 16 25 23 28 49 18z m-634 -154 l0 -40 -60 30
c-33 16 -66 30 -75 30 -9 0 -42 -14 -75 -30 l-60 -30 0 40 c0 39 1 40 67 74
l68 34 67 -34 c67 -34 68 -35 68 -74z m1510 0 l0 -40 -60 30 c-33 16 -66 30
-75 30 -9 0 -42 -14 -75 -30 l-60 -30 0 40 c0 39 1 40 67 74 l68 34 67 -34
c67 -34 68 -35 68 -74z m-1575 -102 c61 -31 66 -35 63 -63 l-3 -30 -130 0
-130 0 -3 30 c-3 28 2 33 60 62 35 18 66 32 70 32 4 1 37 -14 73 -31z m1510 0
c61 -31 66 -35 63 -63 l-3 -30 -130 0 -130 0 -3 30 c-3 28 2 33 60 62 35 18
66 32 70 32 4 1 37 -14 73 -31z"/>
</g>
</svg>
